<svg xmlns="http://www.w3.org/2000/svg" xmlns:xlink="http://www.w3.org/1999/xlink" width="500" zoomAndPan="magnify" viewBox="0 0 375 225" height="300" preserveAspectRatio="xMidYMid meet" version="1.0"><defs><g/><clipPath id="be64d571ae"><path d="M 56.699219 34.703125 L 133 34.703125 L 133 129.203125 L 56.699219 129.203125 Z M 56.699219 34.703125 " clip-rule="nonzero"/></clipPath><clipPath id="173dcd3669"><path d="M 111 70 L 148.949219 70 L 148.949219 129.203125 L 111 129.203125 Z M 111 70 " clip-rule="nonzero"/></clipPath></defs><g fill="#027dfc" fill-opacity="1"><g transform="translate(152.497975, 128.658102)"><g><path d="M 61.46875 -37.71875 L 49.140625 0 L 39.765625 0 L 31.46875 -25.53125 L 22.890625 0 L 13.578125 0 L 1.1875 -37.71875 L 10.234375 -37.71875 L 18.75 -11.203125 L 27.640625 -37.71875 L 35.71875 -37.71875 L 44.34375 -10.984375 L 53.125 -37.71875 Z M 61.46875 -37.71875 "/></g></g></g><g fill="#027dfc" fill-opacity="1"><g transform="translate(213.911054, 128.658102)"><g><path d="M 32.265625 -14.390625 C 32.265625 -14.273438 32.210938 -13.519531 32.109375 -12.125 L 10.1875 -12.125 C 10.582031 -10.320312 11.515625 -8.898438 12.984375 -7.859375 C 14.453125 -6.816406 16.285156 -6.296875 18.484375 -6.296875 C 19.984375 -6.296875 21.316406 -6.519531 22.484375 -6.96875 C 23.660156 -7.425781 24.75 -8.140625 25.75 -9.109375 L 30.21875 -4.25 C 27.488281 -1.125 23.503906 0.4375 18.265625 0.4375 C 14.992188 0.4375 12.097656 -0.195312 9.578125 -1.46875 C 7.066406 -2.75 5.128906 -4.519531 3.765625 -6.78125 C 2.398438 -9.050781 1.71875 -11.625 1.71875 -14.5 C 1.71875 -17.332031 2.390625 -19.890625 3.734375 -22.171875 C 5.085938 -24.453125 6.941406 -26.226562 9.296875 -27.5 C 11.648438 -28.78125 14.28125 -29.421875 17.1875 -29.421875 C 20.019531 -29.421875 22.585938 -28.804688 24.890625 -27.578125 C 27.191406 -26.359375 28.992188 -24.609375 30.296875 -22.328125 C 31.609375 -20.046875 32.265625 -17.398438 32.265625 -14.390625 Z M 17.234375 -23.0625 C 15.335938 -23.0625 13.738281 -22.519531 12.4375 -21.4375 C 11.144531 -20.363281 10.359375 -18.894531 10.078125 -17.03125 L 24.34375 -17.03125 C 24.0625 -18.851562 23.273438 -20.3125 21.984375 -21.40625 C 20.691406 -22.507812 19.109375 -23.0625 17.234375 -23.0625 Z M 17.234375 -23.0625 "/></g></g></g><g fill="#027dfc" fill-opacity="1"><g transform="translate(246.664582, 128.658102)"><g><path d="M 15.5625 -29.421875 C 20.050781 -29.421875 23.5 -28.347656 25.90625 -26.203125 C 28.320312 -24.066406 29.53125 -20.847656 29.53125 -16.546875 L 29.53125 0 L 21.65625 0 L 21.65625 -3.609375 C 20.070312 -0.910156 17.128906 0.4375 12.828125 0.4375 C 10.597656 0.4375 8.664062 0.0625 7.03125 -0.6875 C 5.394531 -1.445312 4.144531 -2.488281 3.28125 -3.8125 C 2.425781 -5.144531 2 -6.65625 2 -8.34375 C 2 -11.039062 3.007812 -13.160156 5.03125 -14.703125 C 7.0625 -16.253906 10.195312 -17.03125 14.4375 -17.03125 L 21.125 -17.03125 C 21.125 -18.851562 20.566406 -20.257812 19.453125 -21.25 C 18.335938 -22.238281 16.664062 -22.734375 14.4375 -22.734375 C 12.894531 -22.734375 11.378906 -22.488281 9.890625 -22 C 8.398438 -21.519531 7.132812 -20.867188 6.09375 -20.046875 L 3.078125 -25.90625 C 4.648438 -27.019531 6.539062 -27.882812 8.75 -28.5 C 10.957031 -29.113281 13.226562 -29.421875 15.5625 -29.421875 Z M 14.921875 -5.21875 C 16.359375 -5.21875 17.632812 -5.550781 18.75 -6.21875 C 19.863281 -6.882812 20.65625 -7.863281 21.125 -9.15625 L 21.125 -12.125 L 15.359375 -12.125 C 11.910156 -12.125 10.1875 -10.992188 10.1875 -8.734375 C 10.1875 -7.648438 10.609375 -6.789062 11.453125 -6.15625 C 12.296875 -5.53125 13.453125 -5.21875 14.921875 -5.21875 Z M 14.921875 -5.21875 "/></g></g></g><g fill="#027dfc" fill-opacity="1"><g transform="translate(278.663904, 128.658102)"><g><path d="M 3.875 -39.96875 L 12.28125 -39.96875 L 12.28125 0 L 3.875 0 Z M 3.875 -39.96875 "/></g></g></g><g fill="#027dfc" fill-opacity="1"><g transform="translate(293.639886, 128.658102)"><g><path d="M 22.578125 -1.40625 C 21.742188 -0.789062 20.722656 -0.328125 19.515625 -0.015625 C 18.316406 0.285156 17.054688 0.4375 15.734375 0.4375 C 12.285156 0.4375 9.617188 -0.441406 7.734375 -2.203125 C 5.847656 -3.960938 4.90625 -6.550781 4.90625 -9.96875 L 4.90625 -21.875 L 0.4375 -21.875 L 0.4375 -28.34375 L 4.90625 -28.34375 L 4.90625 -35.390625 L 13.3125 -35.390625 L 13.3125 -28.34375 L 20.53125 -28.34375 L 20.53125 -21.875 L 13.3125 -21.875 L 13.3125 -10.078125 C 13.3125 -8.859375 13.625 -7.914062 14.25 -7.25 C 14.875 -6.582031 15.765625 -6.25 16.921875 -6.25 C 18.242188 -6.25 19.375 -6.609375 20.3125 -7.328125 Z M 22.578125 -1.40625 "/></g></g></g><g fill="#027dfc" fill-opacity="1"><g transform="translate(315.834632, 128.658102)"><g><path d="M 21.5 -29.421875 C 25.09375 -29.421875 27.992188 -28.34375 30.203125 -26.1875 C 32.410156 -24.03125 33.515625 -20.832031 33.515625 -16.59375 L 33.515625 0 L 25.109375 0 L 25.109375 -15.296875 C 25.109375 -17.597656 24.601562 -19.3125 23.59375 -20.4375 C 22.59375 -21.570312 21.140625 -22.140625 19.234375 -22.140625 C 17.117188 -22.140625 15.429688 -21.484375 14.171875 -20.171875 C 12.910156 -18.859375 12.28125 -16.910156 12.28125 -14.328125 L 12.28125 0 L 3.875 0 L 3.875 -39.96875 L 12.28125 -39.96875 L 12.28125 -25.96875 C 13.394531 -27.082031 14.738281 -27.9375 16.3125 -28.53125 C 17.894531 -29.125 19.625 -29.421875 21.5 -29.421875 Z M 21.5 -29.421875 "/></g></g></g><g clip-path="url(#be64d571ae)"><path fill="#154957" d="M 73.1875 129.40625 L 88 93.109375 L 102.859375 111.695312 L 126.496094 59.496094 L 132.023438 62 L 129.332031 34.734375 L 107.0625 50.695312 L 112.59375 53.199219 L 99.230469 82.707031 L 83.691406 63.273438 L 56.699219 129.40625 L 73.1875 129.40625 " fill-opacity="1" fill-rule="nonzero"/></g><g clip-path="url(#173dcd3669)"><path fill="#05cd86" d="M 132.453125 129.40625 L 148.9375 129.40625 L 124.976562 70.695312 L 111.152344 101.226562 L 117.636719 93.109375 L 132.453125 129.40625 " fill-opacity="1" fill-rule="nonzero"/></g><g fill="#027dfc" fill-opacity="1"><g transform="translate(13.664672, 128.658102)"><g><path d="M 33.671875 -7 L 33.671875 0 L 4.46875 0 L 4.46875 -37.71875 L 32.96875 -37.71875 L 32.96875 -30.703125 L 13.140625 -30.703125 L 13.140625 -22.515625 L 30.65625 -22.515625 L 30.65625 -15.734375 L 13.140625 -15.734375 L 13.140625 -7 Z M 33.671875 -7 "/></g></g></g><g fill="#05cd86" fill-opacity="1"><g transform="translate(45.064431, 187.086701)"><g><path d="M 5.765625 -3.015625 L 5.765625 0 L 3.390625 0 L 3.390625 -2.953125 L -0.0625 -9.359375 L 2.3125 -9.359375 L 4.578125 -5.28125 L 6.78125 -9.359375 L 9.15625 -9.359375 Z M 5.765625 -3.015625 "/></g></g></g><g fill="#05cd86" fill-opacity="1"><g transform="translate(57.250739, 187.086701)"><g><path d="M 5.375 -9.4375 C 6.832031 -9.4375 8.039062 -8.984375 9 -8.078125 C 9.96875 -7.179688 10.453125 -6.050781 10.453125 -4.6875 C 10.453125 -3.320312 9.96875 -2.179688 9 -1.265625 C 8.03125 -0.347656 6.820312 0.109375 5.375 0.109375 C 3.925781 0.109375 2.722656 -0.347656 1.765625 -1.265625 C 0.804688 -2.179688 0.328125 -3.320312 0.328125 -4.6875 C 0.328125 -6.050781 0.804688 -7.179688 1.765625 -8.078125 C 2.722656 -8.984375 3.925781 -9.4375 5.375 -9.4375 Z M 5.40625 -7.453125 C 4.675781 -7.453125 4.050781 -7.1875 3.53125 -6.65625 C 3.007812 -6.125 2.75 -5.460938 2.75 -4.671875 C 2.75 -3.890625 3.007812 -3.226562 3.53125 -2.6875 C 4.050781 -2.15625 4.671875 -1.890625 5.390625 -1.890625 C 6.117188 -1.890625 6.734375 -2.15625 7.234375 -2.6875 C 7.742188 -3.226562 8 -3.890625 8 -4.671875 C 8 -5.460938 7.742188 -6.125 7.234375 -6.65625 C 6.734375 -7.1875 6.125 -7.453125 5.40625 -7.453125 Z M 5.40625 -7.453125 "/></g></g></g><g fill="#05cd86" fill-opacity="1"><g transform="translate(71.106767, 187.086701)"><g><path d="M 9.359375 -9.359375 L 9.359375 -3.9375 C 9.359375 -2.695312 8.972656 -1.710938 8.203125 -0.984375 C 7.441406 -0.253906 6.40625 0.109375 5.09375 0.109375 C 3.769531 0.109375 2.71875 -0.253906 1.9375 -0.984375 C 1.164062 -1.710938 0.78125 -2.695312 0.78125 -3.9375 L 0.78125 -9.359375 L 3.15625 -9.359375 L 3.15625 -3.9375 C 3.15625 -3.3125 3.332031 -2.8125 3.6875 -2.4375 C 4.050781 -2.070312 4.523438 -1.890625 5.109375 -1.890625 C 5.679688 -1.890625 6.140625 -2.070312 6.484375 -2.4375 C 6.828125 -2.800781 7 -3.300781 7 -3.9375 L 7 -9.359375 Z M 9.359375 -9.359375 "/></g></g></g><g fill="#05cd86" fill-opacity="1"><g transform="translate(84.334979, 187.086701)"><g><path d="M 6.578125 0 L 5.1875 -2.640625 L 3.3125 -2.640625 L 3.3125 0 L 0.9375 0 L 0.9375 -9.359375 L 5.125 -9.359375 C 6.363281 -9.359375 7.320312 -9.070312 8 -8.5 C 8.675781 -7.9375 9.015625 -7.132812 9.015625 -6.09375 C 9.015625 -4.65625 8.445312 -3.65625 7.3125 -3.09375 L 9.28125 0 Z M 3.3125 -4.5 L 5.125 -4.5 C 5.632812 -4.5 6.03125 -4.628906 6.3125 -4.890625 C 6.601562 -5.148438 6.75 -5.523438 6.75 -6.015625 C 6.75 -6.492188 6.601562 -6.859375 6.3125 -7.109375 C 6.03125 -7.359375 5.632812 -7.484375 5.125 -7.484375 L 3.3125 -7.484375 Z M 3.3125 -4.5 "/></g></g></g><g fill="#05cd86" fill-opacity="1"><g transform="translate(97.109027, 187.086701)"><g/></g></g><g fill="#05cd86" fill-opacity="1"><g transform="translate(103.311053, 187.086701)"><g><path d="M 8.09375 -7.453125 L 5.265625 -7.453125 L 5.265625 0 L 2.890625 0 L 2.890625 -7.453125 L 0.09375 -7.453125 L 0.09375 -9.375 L 8.09375 -9.375 Z M 8.09375 -7.453125 "/></g></g></g><g fill="#05cd86" fill-opacity="1"><g transform="translate(114.575668, 187.086701)"><g><path d="M 6.578125 0 L 5.1875 -2.640625 L 3.3125 -2.640625 L 3.3125 0 L 0.9375 0 L 0.9375 -9.359375 L 5.125 -9.359375 C 6.363281 -9.359375 7.320312 -9.070312 8 -8.5 C 8.675781 -7.9375 9.015625 -7.132812 9.015625 -6.09375 C 9.015625 -4.65625 8.445312 -3.65625 7.3125 -3.09375 L 9.28125 0 Z M 3.3125 -4.5 L 5.125 -4.5 C 5.632812 -4.5 6.03125 -4.628906 6.3125 -4.890625 C 6.601562 -5.148438 6.75 -5.523438 6.75 -6.015625 C 6.75 -6.492188 6.601562 -6.859375 6.3125 -7.109375 C 6.03125 -7.359375 5.632812 -7.484375 5.125 -7.484375 L 3.3125 -7.484375 Z M 3.3125 -4.5 "/></g></g></g><g fill="#05cd86" fill-opacity="1"><g transform="translate(127.349717, 187.086701)"><g><path d="M 9.359375 -9.359375 L 9.359375 -3.9375 C 9.359375 -2.695312 8.972656 -1.710938 8.203125 -0.984375 C 7.441406 -0.253906 6.40625 0.109375 5.09375 0.109375 C 3.769531 0.109375 2.71875 -0.253906 1.9375 -0.984375 C 1.164062 -1.710938 0.78125 -2.695312 0.78125 -3.9375 L 0.78125 -9.359375 L 3.15625 -9.359375 L 3.15625 -3.9375 C 3.15625 -3.3125 3.332031 -2.8125 3.6875 -2.4375 C 4.050781 -2.070312 4.523438 -1.890625 5.109375 -1.890625 C 5.679688 -1.890625 6.140625 -2.070312 6.484375 -2.4375 C 6.828125 -2.800781 7 -3.300781 7 -3.9375 L 7 -9.359375 Z M 9.359375 -9.359375 "/></g></g></g><g fill="#05cd86" fill-opacity="1"><g transform="translate(140.577929, 187.086701)"><g><path d="M 4.53125 -9.46875 C 5.9375 -9.46875 7.164062 -9.117188 8.21875 -8.421875 L 7.328125 -6.5625 C 6.835938 -6.851562 6.3125 -7.085938 5.75 -7.265625 C 5.1875 -7.453125 4.710938 -7.546875 4.328125 -7.546875 C 3.640625 -7.546875 3.296875 -7.316406 3.296875 -6.859375 C 3.296875 -6.566406 3.460938 -6.332031 3.796875 -6.15625 C 4.140625 -5.976562 4.554688 -5.820312 5.046875 -5.6875 C 5.535156 -5.5625 6.019531 -5.40625 6.5 -5.21875 C 6.988281 -5.039062 7.398438 -4.742188 7.734375 -4.328125 C 8.078125 -3.921875 8.25 -3.40625 8.25 -2.78125 C 8.25 -1.882812 7.894531 -1.179688 7.1875 -0.671875 C 6.488281 -0.171875 5.59375 0.078125 4.5 0.078125 C 3.726562 0.078125 2.960938 -0.0507812 2.203125 -0.3125 C 1.441406 -0.582031 0.785156 -0.953125 0.234375 -1.421875 L 1.15625 -3.25 C 1.625 -2.84375 2.175781 -2.503906 2.8125 -2.234375 C 3.457031 -1.972656 4.03125 -1.84375 4.53125 -1.84375 C 4.914062 -1.84375 5.210938 -1.910156 5.421875 -2.046875 C 5.640625 -2.191406 5.75 -2.394531 5.75 -2.65625 C 5.75 -2.914062 5.625 -3.132812 5.375 -3.3125 C 5.132812 -3.488281 4.832031 -3.617188 4.46875 -3.703125 C 4.101562 -3.785156 3.707031 -3.894531 3.28125 -4.03125 C 2.851562 -4.175781 2.453125 -4.332031 2.078125 -4.5 C 1.710938 -4.675781 1.40625 -4.945312 1.15625 -5.3125 C 0.914062 -5.6875 0.796875 -6.128906 0.796875 -6.640625 C 0.796875 -7.503906 1.132812 -8.191406 1.8125 -8.703125 C 2.5 -9.210938 3.40625 -9.46875 4.53125 -9.46875 Z M 4.53125 -9.46875 "/></g></g></g><g fill="#05cd86" fill-opacity="1"><g transform="translate(152.283359, 187.086701)"><g><path d="M 8.09375 -7.453125 L 5.265625 -7.453125 L 5.265625 0 L 2.890625 0 L 2.890625 -7.453125 L 0.09375 -7.453125 L 0.09375 -9.375 L 8.09375 -9.375 Z M 8.09375 -7.453125 "/></g></g></g><g fill="#05cd86" fill-opacity="1"><g transform="translate(163.54798, 187.086701)"><g><path d="M 0.8125 -1.8125 C 1.019531 -2.019531 1.285156 -2.125 1.609375 -2.125 C 1.941406 -2.125 2.210938 -2.019531 2.421875 -1.8125 C 2.628906 -1.613281 2.734375 -1.347656 2.734375 -1.015625 C 2.734375 -0.679688 2.628906 -0.410156 2.421875 -0.203125 C 2.210938 0.00390625 1.941406 0.109375 1.609375 0.109375 C 1.285156 0.109375 1.019531 0.00390625 0.8125 -0.203125 C 0.613281 -0.410156 0.515625 -0.679688 0.515625 -1.015625 C 0.515625 -1.347656 0.613281 -1.613281 0.8125 -1.8125 Z M 0.8125 -1.8125 "/></g></g></g><g fill="#05cd86" fill-opacity="1"><g transform="translate(169.896944, 187.086701)"><g/></g></g><g fill="#05cd86" fill-opacity="1"><g transform="translate(176.098976, 187.086701)"><g><path d="M 5.375 -9.4375 C 6.832031 -9.4375 8.039062 -8.984375 9 -8.078125 C 9.96875 -7.179688 10.453125 -6.050781 10.453125 -4.6875 C 10.453125 -3.320312 9.96875 -2.179688 9 -1.265625 C 8.03125 -0.347656 6.820312 0.109375 5.375 0.109375 C 3.925781 0.109375 2.722656 -0.347656 1.765625 -1.265625 C 0.804688 -2.179688 0.328125 -3.320312 0.328125 -4.6875 C 0.328125 -6.050781 0.804688 -7.179688 1.765625 -8.078125 C 2.722656 -8.984375 3.925781 -9.4375 5.375 -9.4375 Z M 5.40625 -7.453125 C 4.675781 -7.453125 4.050781 -7.1875 3.53125 -6.65625 C 3.007812 -6.125 2.75 -5.460938 2.75 -4.671875 C 2.75 -3.890625 3.007812 -3.226562 3.53125 -2.6875 C 4.050781 -2.15625 4.671875 -1.890625 5.390625 -1.890625 C 6.117188 -1.890625 6.734375 -2.15625 7.234375 -2.6875 C 7.742188 -3.226562 8 -3.890625 8 -4.671875 C 8 -5.460938 7.742188 -6.125 7.234375 -6.65625 C 6.734375 -7.1875 6.125 -7.453125 5.40625 -7.453125 Z M 5.40625 -7.453125 "/></g></g></g><g fill="#05cd86" fill-opacity="1"><g transform="translate(189.95501, 187.086701)"><g><path d="M 9.359375 -9.359375 L 9.359375 -3.9375 C 9.359375 -2.695312 8.972656 -1.710938 8.203125 -0.984375 C 7.441406 -0.253906 6.40625 0.109375 5.09375 0.109375 C 3.769531 0.109375 2.71875 -0.253906 1.9375 -0.984375 C 1.164062 -1.710938 0.78125 -2.695312 0.78125 -3.9375 L 0.78125 -9.359375 L 3.15625 -9.359375 L 3.15625 -3.9375 C 3.15625 -3.3125 3.332031 -2.8125 3.6875 -2.4375 C 4.050781 -2.070312 4.523438 -1.890625 5.109375 -1.890625 C 5.679688 -1.890625 6.140625 -2.070312 6.484375 -2.4375 C 6.828125 -2.800781 7 -3.300781 7 -3.9375 L 7 -9.359375 Z M 9.359375 -9.359375 "/></g></g></g><g fill="#05cd86" fill-opacity="1"><g transform="translate(203.183227, 187.086701)"><g><path d="M 6.578125 0 L 5.1875 -2.640625 L 3.3125 -2.640625 L 3.3125 0 L 0.9375 0 L 0.9375 -9.359375 L 5.125 -9.359375 C 6.363281 -9.359375 7.320312 -9.070312 8 -8.5 C 8.675781 -7.9375 9.015625 -7.132812 9.015625 -6.09375 C 9.015625 -4.65625 8.445312 -3.65625 7.3125 -3.09375 L 9.28125 0 Z M 3.3125 -4.5 L 5.125 -4.5 C 5.632812 -4.5 6.03125 -4.628906 6.3125 -4.890625 C 6.601562 -5.148438 6.75 -5.523438 6.75 -6.015625 C 6.75 -6.492188 6.601562 -6.859375 6.3125 -7.109375 C 6.03125 -7.359375 5.632812 -7.484375 5.125 -7.484375 L 3.3125 -7.484375 Z M 3.3125 -4.5 "/></g></g></g><g fill="#05cd86" fill-opacity="1"><g transform="translate(215.957282, 187.086701)"><g/></g></g><g fill="#05cd86" fill-opacity="1"><g transform="translate(222.159314, 187.086701)"><g><path d="M 8.265625 -7.484375 L 3.3125 -7.484375 L 3.3125 -5.625 L 7.78125 -5.625 L 7.78125 -3.765625 L 3.3125 -3.765625 L 3.3125 -1.875 L 8.40625 -1.875 L 8.40625 0 L 0.9375 0 L 0.9375 -9.359375 L 8.265625 -9.359375 Z M 8.265625 -7.484375 "/></g></g></g><g fill="#05cd86" fill-opacity="1"><g transform="translate(234.265478, 187.086701)"><g><path d="M 6.359375 -4.890625 L 9.71875 0 L 6.875 0 L 4.859375 -2.984375 L 2.828125 0 L 0.0625 0 L 3.40625 -4.78125 L 0.28125 -9.359375 L 3.046875 -9.359375 L 4.859375 -6.640625 L 6.65625 -9.359375 L 9.453125 -9.359375 Z M 6.359375 -4.890625 "/></g></g></g><g fill="#05cd86" fill-opacity="1"><g transform="translate(247.173111, 187.086701)"><g><path d="M 0.9375 -9.359375 L 5.015625 -9.359375 C 6.210938 -9.359375 7.140625 -9.070312 7.796875 -8.5 C 8.453125 -7.9375 8.78125 -7.132812 8.78125 -6.09375 C 8.78125 -5 8.453125 -4.148438 7.796875 -3.546875 C 7.140625 -2.941406 6.210938 -2.640625 5.015625 -2.640625 L 3.3125 -2.640625 L 3.3125 0 L 0.9375 0 Z M 3.3125 -7.484375 L 3.3125 -4.5 L 4.890625 -4.5 C 5.421875 -4.5 5.828125 -4.628906 6.109375 -4.890625 C 6.398438 -5.148438 6.546875 -5.523438 6.546875 -6.015625 C 6.546875 -6.492188 6.398438 -6.859375 6.109375 -7.109375 C 5.828125 -7.359375 5.421875 -7.484375 4.890625 -7.484375 Z M 3.3125 -7.484375 "/></g></g></g><g fill="#05cd86" fill-opacity="1"><g transform="translate(259.359412, 187.086701)"><g><path d="M 8.265625 -7.484375 L 3.3125 -7.484375 L 3.3125 -5.625 L 7.78125 -5.625 L 7.78125 -3.765625 L 3.3125 -3.765625 L 3.3125 -1.875 L 8.40625 -1.875 L 8.40625 0 L 0.9375 0 L 0.9375 -9.359375 L 8.265625 -9.359375 Z M 8.265625 -7.484375 "/></g></g></g><g fill="#05cd86" fill-opacity="1"><g transform="translate(271.465564, 187.086701)"><g><path d="M 6.578125 0 L 5.1875 -2.640625 L 3.3125 -2.640625 L 3.3125 0 L 0.9375 0 L 0.9375 -9.359375 L 5.125 -9.359375 C 6.363281 -9.359375 7.320312 -9.070312 8 -8.5 C 8.675781 -7.9375 9.015625 -7.132812 9.015625 -6.09375 C 9.015625 -4.65625 8.445312 -3.65625 7.3125 -3.09375 L 9.28125 0 Z M 3.3125 -4.5 L 5.125 -4.5 C 5.632812 -4.5 6.03125 -4.628906 6.3125 -4.890625 C 6.601562 -5.148438 6.75 -5.523438 6.75 -6.015625 C 6.75 -6.492188 6.601562 -6.859375 6.3125 -7.109375 C 6.03125 -7.359375 5.632812 -7.484375 5.125 -7.484375 L 3.3125 -7.484375 Z M 3.3125 -4.5 "/></g></g></g><g fill="#05cd86" fill-opacity="1"><g transform="translate(284.239619, 187.086701)"><g><path d="M 8.09375 -7.453125 L 5.265625 -7.453125 L 5.265625 0 L 2.890625 0 L 2.890625 -7.453125 L 0.09375 -7.453125 L 0.09375 -9.375 L 8.09375 -9.375 Z M 8.09375 -7.453125 "/></g></g></g><g fill="#05cd86" fill-opacity="1"><g transform="translate(295.50424, 187.086701)"><g><path d="M 3.3125 0 L 0.9375 0 L 0.9375 -9.359375 L 3.3125 -9.359375 Z M 3.3125 0 "/></g></g></g><g fill="#05cd86" fill-opacity="1"><g transform="translate(302.855022, 187.086701)"><g><path d="M 4.53125 -9.46875 C 5.9375 -9.46875 7.164062 -9.117188 8.21875 -8.421875 L 7.328125 -6.5625 C 6.835938 -6.851562 6.3125 -7.085938 5.75 -7.265625 C 5.1875 -7.453125 4.710938 -7.546875 4.328125 -7.546875 C 3.640625 -7.546875 3.296875 -7.316406 3.296875 -6.859375 C 3.296875 -6.566406 3.460938 -6.332031 3.796875 -6.15625 C 4.140625 -5.976562 4.554688 -5.820312 5.046875 -5.6875 C 5.535156 -5.5625 6.019531 -5.40625 6.5 -5.21875 C 6.988281 -5.039062 7.398438 -4.742188 7.734375 -4.328125 C 8.078125 -3.921875 8.25 -3.40625 8.25 -2.78125 C 8.25 -1.882812 7.894531 -1.179688 7.1875 -0.671875 C 6.488281 -0.171875 5.59375 0.078125 4.5 0.078125 C 3.726562 0.078125 2.960938 -0.0507812 2.203125 -0.3125 C 1.441406 -0.582031 0.785156 -0.953125 0.234375 -1.421875 L 1.15625 -3.25 C 1.625 -2.84375 2.175781 -2.503906 2.8125 -2.234375 C 3.457031 -1.972656 4.03125 -1.84375 4.53125 -1.84375 C 4.914062 -1.84375 5.210938 -1.910156 5.421875 -2.046875 C 5.640625 -2.191406 5.75 -2.394531 5.75 -2.65625 C 5.75 -2.914062 5.625 -3.132812 5.375 -3.3125 C 5.132812 -3.488281 4.832031 -3.617188 4.46875 -3.703125 C 4.101562 -3.785156 3.707031 -3.894531 3.28125 -4.03125 C 2.851562 -4.175781 2.453125 -4.332031 2.078125 -4.5 C 1.710938 -4.675781 1.40625 -4.945312 1.15625 -5.3125 C 0.914062 -5.6875 0.796875 -6.128906 0.796875 -6.640625 C 0.796875 -7.503906 1.132812 -8.191406 1.8125 -8.703125 C 2.5 -9.210938 3.40625 -9.46875 4.53125 -9.46875 Z M 4.53125 -9.46875 "/></g></g></g><g fill="#05cd86" fill-opacity="1"><g transform="translate(314.560452, 187.086701)"><g><path d="M 8.265625 -7.484375 L 3.3125 -7.484375 L 3.3125 -5.625 L 7.78125 -5.625 L 7.78125 -3.765625 L 3.3125 -3.765625 L 3.3125 -1.875 L 8.40625 -1.875 L 8.40625 0 L 0.9375 0 L 0.9375 -9.359375 L 8.265625 -9.359375 Z M 8.265625 -7.484375 "/></g></g></g><g fill="#05cd86" fill-opacity="1"><g transform="translate(326.666604, 187.086701)"><g><path d="M 0.8125 -1.8125 C 1.019531 -2.019531 1.285156 -2.125 1.609375 -2.125 C 1.941406 -2.125 2.210938 -2.019531 2.421875 -1.8125 C 2.628906 -1.613281 2.734375 -1.347656 2.734375 -1.015625 C 2.734375 -0.679688 2.628906 -0.410156 2.421875 -0.203125 C 2.210938 0.00390625 1.941406 0.109375 1.609375 0.109375 C 1.285156 0.109375 1.019531 0.00390625 0.8125 -0.203125 C 0.613281 -0.410156 0.515625 -0.679688 0.515625 -1.015625 C 0.515625 -1.347656 0.613281 -1.613281 0.8125 -1.8125 Z M 0.8125 -1.8125 "/></g></g></g><g fill="#8d97ad" fill-opacity="1"><g transform="translate(21.86762, 154.941923)"><g><path d="M 7.5 -13.109375 C 8.414062 -13.109375 9.3125 -12.929688 10.1875 -12.578125 C 11.0625 -12.222656 11.816406 -11.726562 12.453125 -11.09375 L 11.171875 -9.484375 C 10.691406 -9.992188 10.128906 -10.394531 9.484375 -10.6875 C 8.835938 -10.988281 8.1875 -11.140625 7.53125 -11.140625 C 6.226562 -11.140625 5.125 -10.695312 4.21875 -9.8125 C 3.320312 -8.925781 2.875 -7.84375 2.875 -6.5625 C 2.875 -5.269531 3.320312 -4.175781 4.21875 -3.28125 C 5.125 -2.394531 6.226562 -1.953125 7.53125 -1.953125 C 8.882812 -1.953125 10.097656 -2.46875 11.171875 -3.5 L 12.46875 -2.046875 C 11.800781 -1.390625 11.019531 -0.867188 10.125 -0.484375 C 9.226562 -0.0976562 8.328125 0.09375 7.421875 0.09375 C 5.503906 0.09375 3.894531 -0.539062 2.59375 -1.8125 C 1.289062 -3.09375 0.640625 -4.671875 0.640625 -6.546875 C 0.640625 -8.390625 1.300781 -9.941406 2.625 -11.203125 C 3.945312 -12.472656 5.570312 -13.109375 7.5 -13.109375 Z M 7.5 -13.109375 "/></g></g></g><g fill="#8d97ad" fill-opacity="1"><g transform="translate(39.171673, 154.941923)"><g><path d="M 2.625 -11.203125 C 3.957031 -12.472656 5.597656 -13.109375 7.546875 -13.109375 C 9.492188 -13.109375 11.132812 -12.472656 12.46875 -11.203125 C 13.800781 -9.941406 14.46875 -8.378906 14.46875 -6.515625 C 14.46875 -4.660156 13.800781 -3.09375 12.46875 -1.8125 C 11.132812 -0.539062 9.492188 0.09375 7.546875 0.09375 C 5.597656 0.09375 3.957031 -0.539062 2.625 -1.8125 C 1.300781 -3.09375 0.640625 -4.660156 0.640625 -6.515625 C 0.640625 -8.378906 1.300781 -9.941406 2.625 -11.203125 Z M 7.5625 -11.125 C 6.269531 -11.125 5.164062 -10.679688 4.25 -9.796875 C 3.332031 -8.910156 2.875 -7.816406 2.875 -6.515625 C 2.875 -5.222656 3.332031 -4.125 4.25 -3.21875 C 5.175781 -2.320312 6.28125 -1.875 7.5625 -1.875 C 8.84375 -1.875 9.9375 -2.320312 10.84375 -3.21875 C 11.75 -4.125 12.203125 -5.222656 12.203125 -6.515625 C 12.203125 -7.816406 11.75 -8.910156 10.84375 -9.796875 C 9.9375 -10.679688 8.84375 -11.125 7.5625 -11.125 Z M 7.5625 -11.125 "/></g></g></g><g fill="#8d97ad" fill-opacity="1"><g transform="translate(58.580126, 154.941923)"><g><path d="M 13.03125 0 L 10.875 0 L 3.921875 -9.359375 L 3.921875 0 L 1.71875 0 L 1.71875 -13.046875 L 3.875 -13.046875 L 10.875 -3.671875 L 10.875 -13.046875 L 13.03125 -13.046875 Z M 13.03125 0 "/></g></g></g><g fill="#8d97ad" fill-opacity="1"><g transform="translate(77.653366, 154.941923)"><g><path d="M 6 -13.140625 C 7.6875 -13.140625 9.207031 -12.691406 10.5625 -11.796875 L 9.65625 -9.859375 C 8.320312 -10.671875 7.046875 -11.078125 5.828125 -11.078125 C 5.171875 -11.078125 4.648438 -10.957031 4.265625 -10.71875 C 3.890625 -10.476562 3.703125 -10.140625 3.703125 -9.703125 C 3.703125 -9.273438 3.875 -8.90625 4.21875 -8.59375 C 4.570312 -8.289062 5.007812 -8.066406 5.53125 -7.921875 C 6.050781 -7.785156 6.613281 -7.609375 7.21875 -7.390625 C 7.832031 -7.171875 8.398438 -6.941406 8.921875 -6.703125 C 9.453125 -6.460938 9.882812 -6.082031 10.21875 -5.5625 C 10.5625 -5.050781 10.734375 -4.425781 10.734375 -3.6875 C 10.734375 -2.539062 10.273438 -1.625 9.359375 -0.9375 C 8.453125 -0.257812 7.269531 0.078125 5.8125 0.078125 C 4.820312 0.078125 3.859375 -0.109375 2.921875 -0.484375 C 1.992188 -0.859375 1.179688 -1.363281 0.484375 -2 L 1.4375 -3.890625 C 2.09375 -3.285156 2.816406 -2.816406 3.609375 -2.484375 C 4.398438 -2.160156 5.148438 -2 5.859375 -2 C 6.628906 -2 7.226562 -2.132812 7.65625 -2.40625 C 8.082031 -2.6875 8.296875 -3.078125 8.296875 -3.578125 C 8.296875 -4.023438 8.117188 -4.398438 7.765625 -4.703125 C 7.421875 -5.003906 6.988281 -5.226562 6.46875 -5.375 C 5.945312 -5.519531 5.378906 -5.691406 4.765625 -5.890625 C 4.160156 -6.097656 3.597656 -6.316406 3.078125 -6.546875 C 2.554688 -6.773438 2.117188 -7.144531 1.765625 -7.65625 C 1.421875 -8.164062 1.25 -8.78125 1.25 -9.5 C 1.25 -10.613281 1.679688 -11.5 2.546875 -12.15625 C 3.421875 -12.8125 4.570312 -13.140625 6 -13.140625 Z M 6 -13.140625 "/></g></g></g><g fill="#8d97ad" fill-opacity="1"><g transform="translate(93.560698, 154.941923)"><g><path d="M 12.8125 -13.046875 L 12.8125 -5.40625 C 12.8125 -3.707031 12.304688 -2.363281 11.296875 -1.375 C 10.285156 -0.394531 8.898438 0.09375 7.140625 0.09375 C 5.378906 0.09375 3.988281 -0.394531 2.96875 -1.375 C 1.957031 -2.363281 1.453125 -3.707031 1.453125 -5.40625 L 1.453125 -13.046875 L 3.65625 -13.046875 L 3.65625 -5.40625 C 3.65625 -4.3125 3.96875 -3.445312 4.59375 -2.8125 C 5.21875 -2.1875 6.070312 -1.875 7.15625 -1.875 C 8.226562 -1.875 9.070312 -2.1875 9.6875 -2.8125 C 10.300781 -3.4375 10.609375 -4.300781 10.609375 -5.40625 L 10.609375 -13.046875 Z M 12.8125 -13.046875 "/></g></g></g><g fill="#8d97ad" fill-opacity="1"><g transform="translate(112.11249, 154.941923)"><g><path d="M 3.921875 -2 L 9.5625 -2 L 9.5625 0 L 1.71875 0 L 1.71875 -13.046875 L 3.921875 -13.046875 Z M 3.921875 -2 "/></g></g></g><g fill="#8d97ad" fill-opacity="1"><g transform="translate(126.381005, 154.941923)"><g><path d="M 10.625 -11.078125 L 6.484375 -11.078125 L 6.484375 0 L 4.28125 0 L 4.28125 -11.078125 L 0.171875 -11.078125 L 0.171875 -13.046875 L 10.625 -13.046875 Z M 10.625 -11.078125 "/></g></g></g><g fill="#8d97ad" fill-opacity="1"><g transform="translate(141.487552, 154.941923)"><g><path d="M 10.140625 -2.9375 L 3.5625 -2.9375 L 2.3125 0 L 0.015625 0 L 5.78125 -13.046875 L 8.03125 -13.046875 L 13.734375 0 L 11.390625 0 Z M 9.296875 -4.90625 L 6.84375 -10.703125 L 4.375 -4.90625 Z M 9.296875 -4.90625 "/></g></g></g><g fill="#8d97ad" fill-opacity="1"><g transform="translate(159.555157, 154.941923)"><g><path d="M 13.03125 0 L 10.875 0 L 3.921875 -9.359375 L 3.921875 0 L 1.71875 0 L 1.71875 -13.046875 L 3.875 -13.046875 L 10.875 -3.671875 L 10.875 -13.046875 L 13.03125 -13.046875 Z M 13.03125 0 "/></g></g></g><g fill="#8d97ad" fill-opacity="1"><g transform="translate(178.628401, 154.941923)"><g><path d="M 7.5 -13.109375 C 8.414062 -13.109375 9.3125 -12.929688 10.1875 -12.578125 C 11.0625 -12.222656 11.816406 -11.726562 12.453125 -11.09375 L 11.171875 -9.484375 C 10.691406 -9.992188 10.128906 -10.394531 9.484375 -10.6875 C 8.835938 -10.988281 8.1875 -11.140625 7.53125 -11.140625 C 6.226562 -11.140625 5.125 -10.695312 4.21875 -9.8125 C 3.320312 -8.925781 2.875 -7.84375 2.875 -6.5625 C 2.875 -5.269531 3.320312 -4.175781 4.21875 -3.28125 C 5.125 -2.394531 6.226562 -1.953125 7.53125 -1.953125 C 8.882812 -1.953125 10.097656 -2.46875 11.171875 -3.5 L 12.46875 -2.046875 C 11.800781 -1.390625 11.019531 -0.867188 10.125 -0.484375 C 9.226562 -0.0976562 8.328125 0.09375 7.421875 0.09375 C 5.503906 0.09375 3.894531 -0.539062 2.59375 -1.8125 C 1.289062 -3.09375 0.640625 -4.671875 0.640625 -6.546875 C 0.640625 -8.390625 1.300781 -9.941406 2.625 -11.203125 C 3.945312 -12.472656 5.570312 -13.109375 7.5 -13.109375 Z M 7.5 -13.109375 "/></g></g></g><g fill="#8d97ad" fill-opacity="1"><g transform="translate(195.932458, 154.941923)"><g><path d="M 7.0625 -4.34375 L 7.0625 0 L 4.890625 0 L 4.890625 -4.265625 L 0.015625 -13.046875 L 2.234375 -13.046875 L 5.96875 -6.6875 L 9.625 -13.046875 L 11.859375 -13.046875 Z M 7.0625 -4.34375 "/></g></g></g><g fill="#8d97ad" fill-opacity="1"><g transform="translate(212.11914, 154.941923)"><g/></g></g><g fill="#8d97ad" fill-opacity="1"><g transform="translate(221.247702, 154.941923)"><g><path d="M 6 -13.140625 C 7.6875 -13.140625 9.207031 -12.691406 10.5625 -11.796875 L 9.65625 -9.859375 C 8.320312 -10.671875 7.046875 -11.078125 5.828125 -11.078125 C 5.171875 -11.078125 4.648438 -10.957031 4.265625 -10.71875 C 3.890625 -10.476562 3.703125 -10.140625 3.703125 -9.703125 C 3.703125 -9.273438 3.875 -8.90625 4.21875 -8.59375 C 4.570312 -8.289062 5.007812 -8.066406 5.53125 -7.921875 C 6.050781 -7.785156 6.613281 -7.609375 7.21875 -7.390625 C 7.832031 -7.171875 8.398438 -6.941406 8.921875 -6.703125 C 9.453125 -6.460938 9.882812 -6.082031 10.21875 -5.5625 C 10.5625 -5.050781 10.734375 -4.425781 10.734375 -3.6875 C 10.734375 -2.539062 10.273438 -1.625 9.359375 -0.9375 C 8.453125 -0.257812 7.269531 0.078125 5.8125 0.078125 C 4.820312 0.078125 3.859375 -0.109375 2.921875 -0.484375 C 1.992188 -0.859375 1.179688 -1.363281 0.484375 -2 L 1.4375 -3.890625 C 2.09375 -3.285156 2.816406 -2.816406 3.609375 -2.484375 C 4.398438 -2.160156 5.148438 -2 5.859375 -2 C 6.628906 -2 7.226562 -2.132812 7.65625 -2.40625 C 8.082031 -2.6875 8.296875 -3.078125 8.296875 -3.578125 C 8.296875 -4.023438 8.117188 -4.398438 7.765625 -4.703125 C 7.421875 -5.003906 6.988281 -5.226562 6.46875 -5.375 C 5.945312 -5.519531 5.378906 -5.691406 4.765625 -5.890625 C 4.160156 -6.097656 3.597656 -6.316406 3.078125 -6.546875 C 2.554688 -6.773438 2.117188 -7.144531 1.765625 -7.65625 C 1.421875 -8.164062 1.25 -8.78125 1.25 -9.5 C 1.25 -10.613281 1.679688 -11.5 2.546875 -12.15625 C 3.421875 -12.8125 4.570312 -13.140625 6 -13.140625 Z M 6 -13.140625 "/></g></g></g><g fill="#8d97ad" fill-opacity="1"><g transform="translate(237.155027, 154.941923)"><g><path d="M 11.03125 -11.078125 L 3.921875 -11.078125 L 3.921875 -7.546875 L 10.296875 -7.546875 L 10.296875 -5.578125 L 3.921875 -5.578125 L 3.921875 -1.96875 L 11.265625 -1.96875 L 11.265625 0 L 1.71875 0 L 1.71875 -13.046875 L 11.03125 -13.046875 Z M 11.03125 -11.078125 "/></g></g></g><g fill="#8d97ad" fill-opacity="1"><g transform="translate(253.695548, 154.941923)"><g><path d="M 9.984375 0 L 7.609375 -3.953125 C 7.484375 -3.941406 7.285156 -3.9375 7.015625 -3.9375 L 3.921875 -3.9375 L 3.921875 0 L 1.71875 0 L 1.71875 -13.046875 L 7.015625 -13.046875 C 8.671875 -13.046875 9.957031 -12.65625 10.875 -11.875 C 11.800781 -11.101562 12.265625 -10.007812 12.265625 -8.59375 C 12.265625 -7.550781 12.03125 -6.664062 11.5625 -5.9375 C 11.101562 -5.21875 10.4375 -4.691406 9.5625 -4.359375 L 12.484375 0 Z M 3.921875 -5.90625 L 7.015625 -5.90625 C 9.117188 -5.90625 10.171875 -6.78125 10.171875 -8.53125 C 10.171875 -10.226562 9.117188 -11.078125 7.015625 -11.078125 L 3.921875 -11.078125 Z M 3.921875 -5.90625 "/></g></g></g><g fill="#8d97ad" fill-opacity="1"><g transform="translate(271.483798, 154.941923)"><g><path d="M 7.53125 0 L 5.25 0 L 0.0625 -13.046875 L 2.421875 -13.046875 L 6.453125 -2.4375 L 10.515625 -13.046875 L 12.8125 -13.046875 Z M 7.53125 0 "/></g></g></g><g fill="#8d97ad" fill-opacity="1"><g transform="translate(288.657491, 154.941923)"><g><path d="M 3.921875 0 L 1.71875 0 L 1.71875 -13.046875 L 3.921875 -13.046875 Z M 3.921875 0 "/></g></g></g><g fill="#8d97ad" fill-opacity="1"><g transform="translate(298.60547, 154.941923)"><g><path d="M 7.5 -13.109375 C 8.414062 -13.109375 9.3125 -12.929688 10.1875 -12.578125 C 11.0625 -12.222656 11.816406 -11.726562 12.453125 -11.09375 L 11.171875 -9.484375 C 10.691406 -9.992188 10.128906 -10.394531 9.484375 -10.6875 C 8.835938 -10.988281 8.1875 -11.140625 7.53125 -11.140625 C 6.226562 -11.140625 5.125 -10.695312 4.21875 -9.8125 C 3.320312 -8.925781 2.875 -7.84375 2.875 -6.5625 C 2.875 -5.269531 3.320312 -4.175781 4.21875 -3.28125 C 5.125 -2.394531 6.226562 -1.953125 7.53125 -1.953125 C 8.882812 -1.953125 10.097656 -2.46875 11.171875 -3.5 L 12.46875 -2.046875 C 11.800781 -1.390625 11.019531 -0.867188 10.125 -0.484375 C 9.226562 -0.0976562 8.328125 0.09375 7.421875 0.09375 C 5.503906 0.09375 3.894531 -0.539062 2.59375 -1.8125 C 1.289062 -3.09375 0.640625 -4.671875 0.640625 -6.546875 C 0.640625 -8.390625 1.300781 -9.941406 2.625 -11.203125 C 3.945312 -12.472656 5.570312 -13.109375 7.5 -13.109375 Z M 7.5 -13.109375 "/></g></g></g><g fill="#8d97ad" fill-opacity="1"><g transform="translate(315.909515, 154.941923)"><g><path d="M 11.03125 -11.078125 L 3.921875 -11.078125 L 3.921875 -7.546875 L 10.296875 -7.546875 L 10.296875 -5.578125 L 3.921875 -5.578125 L 3.921875 -1.96875 L 11.265625 -1.96875 L 11.265625 0 L 1.71875 0 L 1.71875 -13.046875 L 11.03125 -13.046875 Z M 11.03125 -11.078125 "/></g></g></g><g fill="#8d97ad" fill-opacity="1"><g transform="translate(332.450036, 154.941923)"><g><path d="M 6 -13.140625 C 7.6875 -13.140625 9.207031 -12.691406 10.5625 -11.796875 L 9.65625 -9.859375 C 8.320312 -10.671875 7.046875 -11.078125 5.828125 -11.078125 C 5.171875 -11.078125 4.648438 -10.957031 4.265625 -10.71875 C 3.890625 -10.476562 3.703125 -10.140625 3.703125 -9.703125 C 3.703125 -9.273438 3.875 -8.90625 4.21875 -8.59375 C 4.570312 -8.289062 5.007812 -8.066406 5.53125 -7.921875 C 6.050781 -7.785156 6.613281 -7.609375 7.21875 -7.390625 C 7.832031 -7.171875 8.398438 -6.941406 8.921875 -6.703125 C 9.453125 -6.460938 9.882812 -6.082031 10.21875 -5.5625 C 10.5625 -5.050781 10.734375 -4.425781 10.734375 -3.6875 C 10.734375 -2.539062 10.273438 -1.625 9.359375 -0.9375 C 8.453125 -0.257812 7.269531 0.078125 5.8125 0.078125 C 4.820312 0.078125 3.859375 -0.109375 2.921875 -0.484375 C 1.992188 -0.859375 1.179688 -1.363281 0.484375 -2 L 1.4375 -3.890625 C 2.09375 -3.285156 2.816406 -2.816406 3.609375 -2.484375 C 4.398438 -2.160156 5.148438 -2 5.859375 -2 C 6.628906 -2 7.226562 -2.132812 7.65625 -2.40625 C 8.082031 -2.6875 8.296875 -3.078125 8.296875 -3.578125 C 8.296875 -4.023438 8.117188 -4.398438 7.765625 -4.703125 C 7.421875 -5.003906 6.988281 -5.226562 6.46875 -5.375 C 5.945312 -5.519531 5.378906 -5.691406 4.765625 -5.890625 C 4.160156 -6.097656 3.597656 -6.316406 3.078125 -6.546875 C 2.554688 -6.773438 2.117188 -7.144531 1.765625 -7.65625 C 1.421875 -8.164062 1.25 -8.78125 1.25 -9.5 C 1.25 -10.613281 1.679688 -11.5 2.546875 -12.15625 C 3.421875 -12.8125 4.570312 -13.140625 6 -13.140625 Z M 6 -13.140625 "/></g></g></g></svg>